<svg width="16" height="14" fill="none" xmlns="http://www.w3.org/2000/svg"><path fill-rule="evenodd" clip-rule="evenodd" d="M4.456.853c-.27-.599-.553-.61-.81-.621-.21-.01-.45-.009-.689-.009-.24 0-.63.09-.959.45-.33.36-1.26 1.23-1.26 3s1.29 3.48 1.47 3.72c.18.24 2.488 3.988 6.144 5.43 3.038 1.198 3.656.96 4.316.9.66-.06 2.128-.87 2.427-1.71.3-.84.3-1.56.21-1.71-.09-.15-.33-.24-.69-.42-.359-.18-2.127-1.05-2.457-1.17-.33-.12-.57-.18-.81.18-.24.36-.928 1.17-1.138 1.41-.21.24-.42.27-.78.09-.359-.18-1.517-.56-2.891-1.785-1.07-.954-1.792-2.131-2.002-2.491-.21-.36-.003-.537.158-.734.291-.354.78-.99.9-1.23s.06-.45-.03-.63-.79-1.958-1.11-2.67z" fill="#fff"/></svg>