<svg width="23" height="19" fill="none" xmlns="http://www.w3.org/2000/svg"><path d="M5.093 18.075c-2.31 0-4.168-1.952-4.168-4.362 0-2.115 1.443-3.889 3.37-4.274a4.272 4.272 0 011.727-2s0 0 0 0l9.797-5.925L5.093 18.075zm0 0h11.319c2.31 0 4.176-1.951 4.176-4.362 0-1.601-.834-2.998-2.07-3.752M5.093 18.075l13.425-8.114m0 0l1.471-.892c2.004-1.212 2.675-3.87 1.524-5.957C20.36 1.024 17.817.3 15.819 1.514l2.699 8.447zm-8.327 5.033h.001l.25-.154v2.602h-5.35c-1.972 0-3.546-1.653-3.546-3.729 0-1.688 1.051-3.092 2.508-3.556a4.342 4.342 0 00-.111.749c-.059.832.11 1.7.547 2.482 1.152 2.088 3.704 2.81 5.701 1.606zm-5.636-4.042h0v-.002c.082-1.185.706-2.318 1.775-2.968l4.627-2.796 3.553 6.452-4.628 2.796h0c-1.707 1.038-3.867.44-4.856-1.351a3.856 3.856 0 01-.47-2.131zm15.117-2.435l-4.624 2.795-3.562-6.452 4.642-2.803s0 0 0 0c1.706-1.03 3.867-.424 4.856 1.369l.066-.036-.066.036c.99 1.794.397 4.06-1.312 5.091h0zm-8.61 8.925v-2.979l6.842-4.14c1.22.59 2.062 1.881 2.062 3.39 0 2.075-1.59 3.729-3.554 3.729h-5.35z" fill="#2C2C2C" stroke="#2C2C2C" stroke-width=".15"/></svg>