<svg width="23" height="24" fill="none" xmlns="http://www.w3.org/2000/svg"><path d="M19.625 16.051c-1.306-1.117-2.632-1.794-3.922-.678l-.771.674c-.564.49-1.612 2.776-5.664-1.885-4.052-4.656-1.64-5.381-1.076-5.866l.774-.675c1.284-1.119.8-2.526-.126-3.975l-.559-.878C7.351 1.322 6.34.373 5.051 1.49l-.695.607c-.569.415-2.158 1.761-2.544 4.32-.464 3.07 1 6.586 4.354 10.443 3.35 3.86 6.63 5.798 9.738 5.764 2.582-.028 4.142-1.413 4.63-1.917l.698-.609c1.283-1.115.486-2.251-.821-3.371l-.786-.676z" stroke="#fff" stroke-width="1.5"/></svg>