<svg width="21" height="19" fill="none" xmlns="http://www.w3.org/2000/svg"><mask id="a" maskUnits="userSpaceOnUse" x="-.288" y="0" width="21" height="19" fill="#000"><path fill="#fff" d="M-.288 0h21v19h-21z"/><path d="M18.459 4.663V3.121a.46.46 0 00.313-.42V1.457c0-.252-.232-.457-.517-.457h-2.263c-.285 0-.517.205-.517.457V2.7c0 .21.161.385.379.438v1.42a3.03 3.03 0 01-1.051 2.284 3.382 3.382 0 00-.912 1.28 3.377 3.377 0 00-.856-1.228c-.671-.61-1.041-1.403-1.041-2.232V3.121a.46.46 0 00.313-.42V1.457c0-.252-.232-.457-.517-.457H9.527c-.285 0-.517.205-.517.457V2.7c0 .21.161.385.379.438v1.42a3.03 3.03 0 01-1.05 2.284 3.382 3.382 0 00-.913 1.28 3.377 3.377 0 00-.856-1.228c-.67-.609-1.04-1.402-1.04-2.231V3.121a.46.46 0 00.313-.42V1.457c0-.252-.232-.457-.517-.457H3.062c-.285 0-.516.205-.516.457V2.7c0 .21.16.385.378.438v1.42a3.03 3.03 0 01-1.05 2.284A3.346 3.346 0 00.711 9.365v8.405c0 .449.384.814.856.814h5.251a.875.875 0 00.607-.241c.155.149.37.241.607.241h5.251a.875.875 0 00.607-.241c.155.149.37.241.607.241h5.251c.472 0 .856-.365.856-.814V9.365c0-.933-.403-1.834-1.105-2.47-.672-.61-1.041-1.403-1.041-2.232zm-2.108-.114V3.158h1.61v1.39h-1.61zm-.378-3.092c0-.01.008-.017.019-.017h2.263c.01 0 .02.007.02.017V2.7c0 .01-.01.017-.02.017h-2.263c-.01 0-.02-.007-.02-.017V1.457zm-.821 5.7a3.464 3.464 0 001.169-2.169h1.658c.085.825.49 1.601 1.165 2.213.495.45.815 1.051.921 1.698h-5.884c.11-.669.447-1.287.97-1.742zM1.21 9.365l.001-.026h5.965l.001.023v6.708H1.21V9.365zm6.465-.003l.001-.023h5.965l.001.023v6.708H7.675V9.362zm6.465 0v-.023h5.966l.001.026v6.705H14.14V9.362zM9.886 4.549V3.158h1.61v1.39h-1.61zm-.378-3.092c0-.01.008-.017.019-.017h2.263c.01 0 .02.007.02.017V2.7c0 .01-.01.017-.02.017H9.527c-.01 0-.02-.007-.02-.017V1.457zm-.821 5.7a3.464 3.464 0 001.169-2.169h1.659c.084.825.49 1.601 1.164 2.213.495.45.815 1.051.921 1.698H7.718a2.924 2.924 0 01.97-1.742zM3.42 4.549V3.158h1.61v1.39H3.42zm-.378-3.092c0-.01.008-.017.019-.017h2.263c.01 0 .02.007.02.017V2.7c0 .01-.01.017-.02.017H3.062c-.01 0-.02-.007-.02-.017V1.457zm-.821 5.7a3.465 3.465 0 001.17-2.169H5.05c.085.825.49 1.601 1.164 2.213.495.45.815 1.051.922 1.698H1.252a2.93 2.93 0 01.97-1.742zm4.597 10.988h-5.25a.367.367 0 01-.358-.375v-1.26h5.967v1.262a.367.367 0 01-.358.373zm6.465 0h-5.25a.367.367 0 01-.358-.373V16.51h5.967v1.262a.367.367 0 01-.358.373zm6.465 0h-5.251a.367.367 0 01-.358-.373V16.51h5.967v1.26c0 .207-.16.375-.358.375z"/></mask><path d="M18.459 4.663V3.121a.46.46 0 00.313-.42V1.457c0-.252-.232-.457-.517-.457h-2.263c-.285 0-.517.205-.517.457V2.7c0 .21.161.385.379.438v1.42a3.03 3.03 0 01-1.051 2.284 3.382 3.382 0 00-.912 1.28 3.377 3.377 0 00-.856-1.228c-.671-.61-1.041-1.403-1.041-2.232V3.121a.46.46 0 00.313-.42V1.457c0-.252-.232-.457-.517-.457H9.527c-.285 0-.517.205-.517.457V2.7c0 .21.161.385.379.438v1.42a3.03 3.03 0 01-1.05 2.284 3.382 3.382 0 00-.913 1.28 3.377 3.377 0 00-.856-1.228c-.67-.609-1.04-1.402-1.04-2.231V3.121a.46.46 0 00.313-.42V1.457c0-.252-.232-.457-.517-.457H3.062c-.285 0-.516.205-.516.457V2.7c0 .21.16.385.378.438v1.42a3.03 3.03 0 01-1.05 2.284A3.346 3.346 0 00.711 9.365v8.405c0 .449.384.814.856.814h5.251a.875.875 0 00.607-.241c.155.149.37.241.607.241h5.251a.875.875 0 00.607-.241c.155.149.37.241.607.241h5.251c.472 0 .856-.365.856-.814V9.365c0-.933-.403-1.834-1.105-2.47-.672-.61-1.041-1.403-1.041-2.232zm-2.108-.114V3.158h1.61v1.39h-1.61zm-.378-3.092c0-.01.008-.017.019-.017h2.263c.01 0 .02.007.02.017V2.7c0 .01-.01.017-.02.017h-2.263c-.01 0-.02-.007-.02-.017V1.457zm-.821 5.7a3.464 3.464 0 001.169-2.169h1.658c.085.825.49 1.601 1.165 2.213.495.45.815 1.051.921 1.698h-5.884c.11-.669.447-1.287.97-1.742zM1.21 9.365l.001-.026h5.965l.001.023v6.708H1.21V9.365zm6.465-.003l.001-.023h5.965l.001.023v6.708H7.675V9.362zm6.465 0v-.023h5.966l.001.026v6.705H14.14V9.362zM9.886 4.549V3.158h1.61v1.39h-1.61zm-.378-3.092c0-.01.008-.017.019-.017h2.263c.01 0 .02.007.02.017V2.7c0 .01-.01.017-.02.017H9.527c-.01 0-.02-.007-.02-.017V1.457zm-.821 5.7a3.464 3.464 0 001.169-2.169h1.659c.084.825.49 1.601 1.164 2.213.495.45.815 1.051.921 1.698H7.718a2.924 2.924 0 01.97-1.742zM3.42 4.549V3.158h1.61v1.39H3.42zm-.378-3.092c0-.01.008-.017.019-.017h2.263c.01 0 .02.007.02.017V2.7c0 .01-.01.017-.02.017H3.062c-.01 0-.02-.007-.02-.017V1.457zm-.821 5.7a3.465 3.465 0 001.17-2.169H5.05c.085.825.49 1.601 1.164 2.213.495.45.815 1.051.922 1.698H1.252a2.93 2.93 0 01.97-1.742zm4.597 10.988h-5.25a.367.367 0 01-.358-.375v-1.26h5.967v1.262a.367.367 0 01-.358.373zm6.465 0h-5.25a.367.367 0 01-.358-.373V16.51h5.967v1.262a.367.367 0 01-.358.373zm6.465 0h-5.251a.367.367 0 01-.358-.373V16.51h5.967v1.26c0 .207-.16.375-.358.375z" fill="#2C2C2C"/><path d="M18.459 4.663V3.121a.46.46 0 00.313-.42V1.457c0-.252-.232-.457-.517-.457h-2.263c-.285 0-.517.205-.517.457V2.7c0 .21.161.385.379.438v1.42a3.03 3.03 0 01-1.051 2.284 3.382 3.382 0 00-.912 1.28 3.377 3.377 0 00-.856-1.228c-.671-.61-1.041-1.403-1.041-2.232V3.121a.46.46 0 00.313-.42V1.457c0-.252-.232-.457-.517-.457H9.527c-.285 0-.517.205-.517.457V2.7c0 .21.161.385.379.438v1.42a3.03 3.03 0 01-1.05 2.284 3.382 3.382 0 00-.913 1.28 3.377 3.377 0 00-.856-1.228c-.67-.609-1.04-1.402-1.04-2.231V3.121a.46.46 0 00.313-.42V1.457c0-.252-.232-.457-.517-.457H3.062c-.285 0-.516.205-.516.457V2.7c0 .21.16.385.378.438v1.42a3.03 3.03 0 01-1.05 2.284A3.346 3.346 0 00.711 9.365v8.405c0 .449.384.814.856.814h5.251a.875.875 0 00.607-.241c.155.149.37.241.607.241h5.251a.875.875 0 00.607-.241c.155.149.37.241.607.241h5.251c.472 0 .856-.365.856-.814V9.365c0-.933-.403-1.834-1.105-2.47-.672-.61-1.041-1.403-1.041-2.232zm-2.108-.114V3.158h1.61v1.39h-1.61zm-.378-3.092c0-.01.008-.017.019-.017h2.263c.01 0 .02.007.02.017V2.7c0 .01-.01.017-.02.017h-2.263c-.01 0-.02-.007-.02-.017V1.457zm-.821 5.7a3.464 3.464 0 001.169-2.169h1.658c.085.825.49 1.601 1.165 2.213.495.45.815 1.051.921 1.698h-5.884c.11-.669.447-1.287.97-1.742zM1.21 9.365l.001-.026h5.965l.001.023v6.708H1.21V9.365zm6.465-.003l.001-.023h5.965l.001.023v6.708H7.675V9.362zm6.465 0v-.023h5.966l.001.026v6.705H14.14V9.362zM9.886 4.549V3.158h1.61v1.39h-1.61zm-.378-3.092c0-.01.008-.017.019-.017h2.263c.01 0 .02.007.02.017V2.7c0 .01-.01.017-.02.017H9.527c-.01 0-.02-.007-.02-.017V1.457zm-.821 5.7a3.464 3.464 0 001.169-2.169h1.659c.084.825.49 1.601 1.164 2.213.495.45.815 1.051.921 1.698H7.718a2.924 2.924 0 01.97-1.742zM3.42 4.549V3.158h1.61v1.39H3.42zm-.378-3.092c0-.01.008-.017.019-.017h2.263c.01 0 .02.007.02.017V2.7c0 .01-.01.017-.02.017H3.062c-.01 0-.02-.007-.02-.017V1.457zm-.821 5.7a3.465 3.465 0 001.17-2.169H5.05c.085.825.49 1.601 1.164 2.213.495.45.815 1.051.922 1.698H1.252a2.93 2.93 0 01.97-1.742zm4.597 10.988h-5.25a.367.367 0 01-.358-.375v-1.26h5.967v1.262a.367.367 0 01-.358.373zm6.465 0h-5.25a.367.367 0 01-.358-.373V16.51h5.967v1.262a.367.367 0 01-.358.373zm6.465 0h-5.251a.367.367 0 01-.358-.373V16.51h5.967v1.26c0 .207-.16.375-.358.375z" stroke="#2C2C2C" stroke-width=".2" mask="url(#a)"/><path d="M9.615 2.211l.883.082 1.204.312-.416.895h-1.159l-.512-.86v-.429zM16.08 2.2l.881.081 1.204.313-.416.894h-1.158l-.512-.86V2.2zm.306 3.13c.08-.333.094-.947.08-1.244.482-.138 1.371-.367 1.371-.144 0 .301.024 1.048.074 1.438-.549.1-1.594.238-1.525-.05zm-6.463 0c.08-.333.094-.947.08-1.244.481-.138 1.37-.367 1.37-.144 0 .301.025 1.048.074 1.438-.548.1-1.593.238-1.524-.05zm-6.465-.022c.08-.333.094-.946.08-1.243.482-.139 1.371-.368 1.371-.145 0 .302.025 1.049.074 1.438-.549.1-1.594.238-1.525-.05zM1.32 17.08v-2.014h5.748v2.014H1.319zm6.464 0v-2.014h5.749v2.014h-5.75zm6.466 0v-2.014h5.748v2.014H14.25zM3.16 2.211l.881.082 1.204.312-.416.895H3.671l-.512-.86v-.429z" fill="#fff"/></svg>