<svg width="21" height="19" fill="none" xmlns="http://www.w3.org/2000/svg"><path d="M10.95.665h0a.725.725 0 00-.925 0h0L.655 8.613a.545.545 0 00-.166.638L10.95.665zm0 0l9.368 7.948s0 0 0 0a.545.545 0 01.167.638c-.094.226-.332.39-.63.39H17.96v7.886c0 .068-.068.172-.214.172H12.61c-.146 0-.214-.104-.214-.172V11.94H8.578v5.587c0 .068-.068.172-.214.172H3.229c-.146 0-.214-.104-.214-.172V9.641M10.949.665L3.015 9.641m0 0h-.4m.4 0h-.4m0 0H1.118c-.297 0-.535-.164-.629-.39l2.126.39z" stroke="#2C2C2C" stroke-width=".8"/></svg>