<svg width="63" height="62" fill="none" xmlns="http://www.w3.org/2000/svg"><rect x=".58" width="61.477" height="61.077" rx="30.538" fill="#F4557B"/><path d="M39.152 31.182h-1.559c.159.432.246.899.246 1.385v5.854c0 .203-.036.398-.1.579h2.577c.963 0 1.747-.779 1.747-1.735v-3.192c0-1.594-1.306-2.891-2.91-2.891zm-13.027 1.385c0-.486.087-.953.246-1.385h-1.56c-1.605 0-2.91 1.297-2.91 2.891v3.192c0 .957.783 1.735 1.746 1.735h2.578a1.717 1.717 0 01-.1-.578v-5.855zm7.639-2.892h-3.565a2.904 2.904 0 00-2.91 2.892v5.855c0 .319.26.578.582.578h8.221a.58.58 0 00.583-.578v-5.855c0-1.595-1.306-2.892-2.911-2.892zm-1.782-7.667c-1.93 0-3.5 1.56-3.5 3.478 0 1.3.722 2.436 1.79 3.033a3.492 3.492 0 001.71.444c.62 0 1.204-.161 1.71-.444a3.476 3.476 0 001.79-3.033c0-1.918-1.57-3.478-3.5-3.478zm-6.147 3.242a2.612 2.612 0 00-2.617 2.6c0 1.434 1.174 2.6 2.617 2.6a2.619 2.619 0 002.31-1.378 2.57 2.57 0 00.308-1.222c0-1.434-1.174-2.6-2.618-2.6zm12.294 0a2.612 2.612 0 00-2.618 2.6c0 .442.111.857.307 1.222a2.627 2.627 0 002.31 1.379 2.612 2.612 0 002.618-2.6 2.611 2.611 0 00-2.617-2.601z" fill="#fff"/></svg>