<svg width="62" height="62" fill="none" xmlns="http://www.w3.org/2000/svg"><rect x=".197" width="61.477" height="61.077" rx="30.538" fill="#508DE9"/><path d="M29.05 20.604a4.026 4.026 0 00-3.543 2.11h2.582v1.306h-3.08a3.049 3.049 0 00-2.381 2.964v1.34a2.57 2.57 0 00-1.921 2.478c0 1.175.8 2.168 1.888 2.469h2.915V30.8h1.316v3.777h-4.198v.042a3.049 3.049 0 002.382 2.964h3.08v1.306h-2.583A4.027 4.027 0 0029.05 41h2.099V20.604H29.05zm12.157 7.72v-.02h-2.882v2.469h-1.316v-3.776h4.198v-.013a3.049 3.049 0 00-2.382-2.964h-3.08v-1.306h2.583a4.027 4.027 0 00-3.543-2.11h-2.099V41h2.1a4.027 4.027 0 003.542-2.11h-2.582v-1.306h3.08a3.049 3.049 0 002.381-2.964v-1.34a2.57 2.57 0 001.922-2.478 2.57 2.57 0 00-1.922-2.478z" fill="#fff"/></svg>