<svg width="62" height="62" fill="none" xmlns="http://www.w3.org/2000/svg"><rect x=".196" width="61.477" height="61.077" rx="30.538" fill="#F4557B"/><path d="M39.941 23.762C38.951 22.626 37.593 22 36.116 22c-1.104 0-2.115.37-3.005 1.097a6.35 6.35 0 00-1.215 1.342 6.358 6.358 0 00-1.215-1.342c-.89-.728-1.9-1.097-3.005-1.097-1.476 0-2.835.626-3.825 1.762-.978 1.122-1.517 2.656-1.517 4.318 0 1.711.603 3.278 1.897 4.93 1.157 1.477 2.821 2.977 4.748 4.714.658.594 1.404 1.266 2.178 1.982.204.19.467.294.74.294.271 0 .534-.104.738-.294.775-.716 1.52-1.389 2.179-1.982 1.926-1.737 3.59-3.237 4.748-4.715 1.294-1.651 1.896-3.218 1.896-4.929 0-1.662-.538-3.196-1.517-4.318z" fill="#fff"/></svg>