<svg width="62" height="62" fill="none" xmlns="http://www.w3.org/2000/svg"><rect x=".197" width="61.477" height="61.077" rx="30.538" fill="#2C2C2C"/><path d="M42.521 28.557a1.124 1.124 0 00-.971-.762l-6.134-.547-2.424-5.574a1.13 1.13 0 00-1.04-.674c-.453 0-.86.264-1.038.674l-2.425 5.574-6.135.547c-.45.04-.83.34-.97.762-.14.423-.012.886.329 1.179l4.636 3.993-1.367 5.914a1.1 1.1 0 00.44 1.146 1.138 1.138 0 001.24.054l5.29-3.107 5.289 3.107c.388.227.875.206 1.242-.054a1.1 1.1 0 00.44-1.146l-1.368-5.914 4.637-3.993a1.1 1.1 0 00.33-1.18z" fill="#fff"/></svg>