<svg width="63" height="62" fill="none" xmlns="http://www.w3.org/2000/svg"><rect x=".938" width="61.477" height="61.077" rx="30.538" fill="#2C2C2C"/><path d="M32.509 30.888c2.585 0 4.681-2.437 4.681-5.444 0-4.17-2.096-5.444-4.681-5.444-2.586 0-4.682 1.275-4.682 5.444 0 3.007 2.096 5.444 4.682 5.444zm10.338 8.013l-2.362-5.286a1.182 1.182 0 00-.534-.565l-3.666-1.896a.238.238 0 00-.251.021 5.831 5.831 0 01-3.525 1.191 5.831 5.831 0 01-3.526-1.19.238.238 0 00-.251-.022l-3.665 1.896a1.18 1.18 0 00-.535.565L22.171 38.9c-.163.364-.13.781.089 1.116.218.334.589.533.99.533h18.517c.402 0 .772-.2.99-.533a1.16 1.16 0 00.09-1.116z" fill="#fff"/></svg>