<svg width="63" height="62" fill="none" xmlns="http://www.w3.org/2000/svg"><rect x=".938" width="61.477" height="61.077" rx="30.538" fill="#F4557B"/><path d="M36.637 27.468h5.118v-2.36a2.736 2.736 0 00-2.742-2.724H25.488a2.736 2.736 0 00-2.741 2.724v10.168A2.736 2.736 0 0025.488 38h13.525a2.736 2.736 0 002.742-2.724v-2.36h-5.118a2.736 2.736 0 01-2.741-2.724 2.736 2.736 0 012.741-2.724z" fill="#fff"/><path d="M36.637 28.558c-.907 0-1.645.733-1.645 1.634 0 .901.738 1.634 1.645 1.634h5.118v-3.268h-5.118zm.731 2.179h-.73a.547.547 0 01-.55-.545c0-.3.246-.545.55-.545h.73c.303 0 .548.244.548.545 0 .3-.245.545-.548.545z" fill="#fff"/></svg>