<svg width="63" height="62" fill="none" xmlns="http://www.w3.org/2000/svg"><rect x=".58" width="61.477" height="61.077" rx="30.538" fill="#2C2C2C"/><path d="M40.605 27.625h-1.447v-1.917c0-3.699-3.03-6.708-6.752-6.708-3.724 0-6.753 3.01-6.753 6.708v1.917h-1.447a.48.48 0 00-.482.48v11.978c0 1.057.865 1.917 1.93 1.917h13.504c1.064 0 1.93-.86 1.93-1.917V28.104a.48.48 0 00-.483-.479zm-6.755 10.01a.478.478 0 01-.48.532h-1.929a.484.484 0 01-.48-.532l.305-2.719a1.892 1.892 0 01-.79-1.541c0-1.057.866-1.917 1.93-1.917s1.929.86 1.929 1.917c0 .62-.295 1.184-.79 1.541l.305 2.719zm2.414-10.01h-7.717v-1.917c0-2.113 1.731-3.833 3.859-3.833 2.127 0 3.858 1.72 3.858 3.833v1.917z" fill="#fff"/></svg>