<svg width="19" height="17" fill="none" xmlns="http://www.w3.org/2000/svg"><path d="M16.767 17H1.968c-1.09 0-1.947-.919-1.947-2.088V4.891c0-1.17.857-2.088 1.947-2.088h14.8c1.09 0 1.947.918 1.947 2.088v10.021c0 1.17-.857 2.088-1.948 2.088zM1.968 3.638C1.345 3.638.8 4.222.8 4.89v10.021c0 .668.545 1.253 1.168 1.253h14.8c.623 0 1.168-.585 1.168-1.253V4.891c0-.669-.545-1.253-1.169-1.253H1.968z" fill="#2C2C2C"/><path d="M12.094 3.9c-.234 0-.39-.167-.39-.417v-1.67c0-.251-.155-.418-.39-.418H7.42c-.233 0-.39.167-.39.417v1.67c0 .251-.155.418-.389.418-.233 0-.39-.167-.39-.417v-1.67c0-.669.546-1.253 1.17-1.253h3.894c.623 0 1.168.584 1.168 1.252v1.67c0 .251-.155.418-.39.418zm-2.726 6.681h-.156L.254 7.241a.523.523 0 01-.233-.585c.078-.167.311-.334.545-.25l8.802 3.34 8.801-3.34c.234-.084.39 0 .468.25.078.25 0 .418-.234.501l-8.957 3.34c0 .084 0 .084-.078.084z" fill="#2C2C2C"/></svg>