<svg width="23" height="19" fill="none" xmlns="http://www.w3.org/2000/svg"><path d="M1 13.713C1 16.085 2.827 18 5.093 18h11.319c2.265 0 4.1-1.915 4.1-4.287 0-1.621-.867-3.027-2.14-3.751l1.579-.957c1.968-1.19 2.629-3.804 1.496-5.857-1.133-2.053-3.63-2.76-5.59-1.57L6.06 7.504a4.201 4.201 0 00-1.711 2C2.439 9.868 1 11.619 1 13.715zm.471 0c0-1.768 1.133-3.234 2.688-3.665a4.368 4.368 0 00-.141.862 4.36 4.36 0 00.537 2.441c1.133 2.053 3.638 2.76 5.598 1.579l.363-.224v2.811H5.093c-2.018 0-3.622-1.69-3.622-3.804zm3.002-2.492c0-.086 0-.181.008-.276.083-1.207.719-2.363 1.81-3.027l4.697-2.838.024.052 3.572 6.486c.009.017.026.034.033.043l-4.696 2.838c-1.744 1.06-3.952.448-4.96-1.38a3.93 3.93 0 01-.488-1.898zm6.507 6.296c0-.017.008-.043.008-.06V14.42l6.912-4.183c1.265.595 2.141 1.923 2.141 3.475 0 2.114-1.62 3.804-3.63 3.804H10.98zm.396-12.679l4.713-2.846c1.745-1.052 3.952-.43 4.961 1.398 1.009 1.828.405 4.14-1.34 5.192l-4.696 2.838a.067.067 0 00-.016-.044l-3.58-6.486c-.017-.017-.025-.034-.042-.052z" fill="#2C2C2C"/><path fill-rule="evenodd" clip-rule="evenodd" d="M10.153 14.93c-1.96 1.181-4.465.474-5.598-1.579a4.363 4.363 0 01-.537-2.44 4.234 4.234 0 01.14-.863 3.626 3.626 0 00-.167.051c-1.468.487-2.52 1.91-2.52 3.614 0 2.114 1.604 3.804 3.622 3.804h5.424v-2.811l-.364.224zm.213.044l-.136.084c-2.035 1.228-4.634.49-5.806-1.634a4.514 4.514 0 01-.556-2.523c.013-.214.042-.423.084-.63-1.36.492-2.33 1.835-2.33 3.442 0 2.038 1.543 3.654 3.47 3.654h5.275v-2.393zM4.63 10.958a3.78 3.78 0 00.461 2.088c.97 1.757 3.083 2.34 4.752 1.324l4.567-2.759-3.481-6.32-4.56 2.755c-1.046.637-1.659 1.747-1.738 2.91v.002zm1.662-3.04c-1.092.664-1.728 1.82-1.811 3.027-.008.095-.008.19-.008.276 0 .647.157 1.294.487 1.898 1.009 1.828 3.217 2.44 4.961 1.38l4.697-2.838-.003-.003a.183.183 0 01-.03-.04l-3.573-6.486-.024-.052-4.696 2.838zM21.05 3.39c-1.009-1.83-3.216-2.45-4.96-1.398l-4.713 2.846.02.027a.218.218 0 00.02.025l3.581 6.486a.067.067 0 01.017.044l4.696-2.838c1.744-1.052 2.348-3.364 1.34-5.192zm-5.974 7.817l4.557-2.754c1.674-1.009 2.257-3.231 1.286-4.99-.97-1.758-3.084-2.349-4.752-1.342l-4.58 2.766 3.489 6.32zM5.093 18.15C2.738 18.15.85 16.161.85 13.713c0-2.135 1.447-3.931 3.392-4.34a4.343 4.343 0 011.741-1.998L15.78 1.45c2.036-1.237 4.627-.498 5.798 1.626 1.17 2.12.49 4.823-1.55 6.057l-1.368.829a4.46 4.46 0 012.003 3.751c0 2.449-1.897 4.437-4.251 4.437H5.092zm13.424-8.101c1.194.746 1.996 2.106 1.996 3.664 0 2.372-1.836 4.287-4.101 4.287H5.092C2.829 18 1 16.085 1 13.713c0-2.095 1.44-3.846 3.35-4.208a4.201 4.201 0 011.71-2.001l9.798-5.926c1.96-1.19 4.456-.483 5.59 1.57 1.132 2.053.47 4.666-1.497 5.857l-1.58.957c.05.028.098.057.146.087zm-2.105 7.468c2.009 0 3.63-1.69 3.63-3.804 0-1.552-.877-2.88-2.142-3.475l-6.912 4.183v3.036a.192.192 0 01-.004.03.172.172 0 00-.004.03h5.432zm-5.274-.15h5.274c1.92 0 3.48-1.617 3.48-3.654 0-1.465-.81-2.72-1.984-3.305l-6.77 4.097v2.862z" fill="#2C2C2C"/></svg>