<svg width="20" height="15" fill="none" xmlns="http://www.w3.org/2000/svg"><path d="M19.61 11.429h-.391V1.07c0-.59-.526-1.071-1.172-1.071H1.953C1.307 0 .781.48.781 1.071V11.43h-.39c-.216 0-.391.16-.391.357v1.428C0 14.2.876 15 1.953 15h16.094C19.124 15 20 14.199 20 13.214v-1.428c0-.197-.175-.357-.39-.357zM1.562 1.07c0-.196.175-.357.39-.357h16.094c.215 0 .39.16.39.357v10.36H1.564V1.07zm10.39 11.072v.357c0 .197-.175.357-.39.357H8.437c-.215 0-.39-.16-.39-.357v-.357h3.906zm7.266 1.071c0 .591-.526 1.072-1.172 1.072H1.953c-.646 0-1.172-.48-1.172-1.072v-1.071h6.485v.357c0 .59.525 1.071 1.171 1.071h3.126c.646 0 1.171-.48 1.171-1.071v-.357h6.485v1.071z" fill="#2C2C2C"/></svg>