<svg width="21" height="19" fill="none" xmlns="http://www.w3.org/2000/svg"><path d="M18.459 4.663V3.121a.46.46 0 00.313-.42V1.457c0-.252-.232-.457-.517-.457h-2.263c-.285 0-.517.205-.517.457V2.7c0 .21.161.385.379.438v1.42a3.03 3.03 0 01-1.051 2.284 3.382 3.382 0 00-.912 1.28 3.377 3.377 0 00-.856-1.228c-.671-.61-1.041-1.403-1.041-2.232V3.121a.46.46 0 00.313-.42V1.457c0-.252-.232-.457-.517-.457H9.527c-.285 0-.517.205-.517.457V2.7c0 .21.161.385.379.438v1.42a3.03 3.03 0 01-1.05 2.284 3.382 3.382 0 00-.913 1.28 3.377 3.377 0 00-.856-1.228c-.67-.609-1.04-1.402-1.04-2.231V3.121a.46.46 0 00.313-.42V1.457c0-.252-.232-.457-.517-.457H3.062c-.285 0-.516.205-.516.457V2.7c0 .21.16.385.378.438v1.42a3.03 3.03 0 01-1.05 2.284A3.346 3.346 0 00.711 9.365v8.405c0 .449.384.814.856.814h5.251a.875.875 0 00.607-.241c.155.149.37.241.607.241h5.251a.875.875 0 00.607-.241c.155.149.37.241.607.241h5.251c.472 0 .856-.365.856-.814V9.365c0-.933-.403-1.834-1.105-2.47-.672-.61-1.041-1.403-1.041-2.232zm-2.108-.114V3.158h1.61v1.39h-1.61zm-.378-3.092c0-.01.008-.017.019-.017h2.263c.01 0 .02.007.02.017V2.7c0 .01-.01.017-.02.017h-2.263c-.01 0-.02-.007-.02-.017V1.457zm-.821 5.7a3.464 3.464 0 001.169-2.169h1.658c.085.825.49 1.601 1.165 2.213.495.45.815 1.051.921 1.698h-5.884c.11-.669.447-1.287.97-1.742zM1.21 9.365l.001-.026h5.965l.001.023v6.708H1.21V9.365zm6.465-.003l.001-.023h5.965l.001.023v6.708H7.675V9.362zm6.465 0v-.023h5.966l.001.026v6.705H14.14V9.362zM9.886 4.549V3.158h1.61v1.39h-1.61zm-.378-3.092c0-.01.008-.017.019-.017h2.263c.01 0 .02.007.02.017V2.7c0 .01-.01.017-.02.017H9.527c-.01 0-.02-.007-.02-.017V1.457zm-.821 5.7a3.464 3.464 0 001.169-2.169h1.659c.084.825.49 1.601 1.164 2.213.495.45.815 1.051.921 1.698H7.718a2.924 2.924 0 01.97-1.742zM3.42 4.549V3.158h1.61v1.39H3.42zm-.378-3.092c0-.01.008-.017.019-.017h2.263c.01 0 .02.007.02.017V2.7c0 .01-.01.017-.02.017H3.062c-.01 0-.02-.007-.02-.017V1.457zm-.821 5.7a3.465 3.465 0 001.17-2.169H5.05c.085.825.49 1.601 1.164 2.213.495.45.815 1.051.922 1.698H1.252a2.93 2.93 0 01.97-1.742zm4.597 10.988h-5.25a.367.367 0 01-.358-.375v-1.26h5.967v1.262a.367.367 0 01-.358.373zm6.465 0h-5.25a.367.367 0 01-.358-.373V16.51h5.967v1.262a.367.367 0 01-.358.373zm6.465 0h-5.251a.367.367 0 01-.358-.373V16.51h5.967v1.26c0 .207-.16.375-.358.375z" fill="#2C2C2C"/><path fill-rule="evenodd" clip-rule="evenodd" d="M8.338 6.843A3.03 3.03 0 009.389 4.56V3.14c-.218-.053-.379-.228-.379-.438V1.457c0-.252.232-.457.517-.457h2.263c.285 0 .517.205.517.457V2.7a.46.46 0 01-.313.42v1.542c0 .83.37 1.622 1.041 2.231a3.368 3.368 0 01.856 1.229 3.375 3.375 0 01.912-1.28 3.03 3.03 0 001.05-2.284V3.14c-.217-.053-.378-.228-.378-.438V1.457c0-.252.232-.457.517-.457h2.263c.285 0 .516.205.516.457V2.7a.46.46 0 01-.313.42v1.542c0 .83.37 1.622 1.042 2.231a3.347 3.347 0 011.105 2.471v8.405c0 .449-.384.814-.856.814h-5.251a.875.875 0 01-.607-.241.875.875 0 01-.607.241H8.033a.875.875 0 01-.607-.241.875.875 0 01-.607.241H1.568c-.472 0-.856-.365-.856-.814V9.365c0-.961.423-1.88 1.161-2.522A3.03 3.03 0 002.924 4.56V3.14c-.217-.053-.378-.228-.378-.438V1.457c0-.252.231-.457.516-.457h2.263c.285 0 .517.205.517.457V2.7a.46.46 0 01-.313.42v1.542c0 .83.37 1.622 1.041 2.231a3.368 3.368 0 01.856 1.229 3.375 3.375 0 01.912-1.28zm-.912 1.034c.201-.417.486-.796.846-1.11A2.93 2.93 0 009.29 4.56V3.213c-.216-.082-.379-.274-.379-.512V1.457c0-.319.289-.557.617-.557h2.263c.328 0 .617.238.617.557V2.7a.55.55 0 01-.313.484v1.478c0 .798.355 1.565 1.008 2.157.333.303.598.663.789 1.057a3.47 3.47 0 01.846-1.11 2.93 2.93 0 001.017-2.208V3.213c-.216-.082-.379-.274-.379-.512V1.457c0-.319.289-.557.617-.557h2.263c.328 0 .616.238.616.557V2.7a.55.55 0 01-.313.484v1.478c0 .798.356 1.565 1.009 2.157a3.447 3.447 0 011.138 2.545v8.405c0 .509-.434.914-.956.914h-5.251a.977.977 0 01-.607-.209.977.977 0 01-.607.21H8.033a.977.977 0 01-.607-.21.977.977 0 01-.607.21H1.568c-.522 0-.956-.406-.956-.915V9.365c0-.99.436-1.937 1.196-2.597a2.93 2.93 0 001.016-2.209V3.213c-.216-.082-.378-.274-.378-.512V1.457c0-.319.288-.557.616-.557h2.263c.328 0 .617.238.617.557V2.7a.55.55 0 01-.313.484v1.478c0 .798.355 1.565 1.008 2.157.333.303.598.663.789 1.057zM19.144 7.2c-.675-.612-1.08-1.388-1.165-2.213h-1.658a3.464 3.464 0 01-1.17 2.169 2.934 2.934 0 00-.97 1.742h5.884a2.933 2.933 0 00-.922-1.698zm.801 1.598a2.833 2.833 0 00-.869-1.524c-.666-.605-1.079-1.369-1.186-2.187h-1.483a3.567 3.567 0 01-1.19 2.144 2.832 2.832 0 00-.915 1.567h5.643zM12.679 7.2c-.675-.612-1.08-1.388-1.165-2.213H9.856a3.464 3.464 0 01-1.17 2.169 2.932 2.932 0 00-.97 1.742H13.6a2.934 2.934 0 00-.922-1.698zm.801 1.6a2.833 2.833 0 00-.868-1.524c-.667-.605-1.08-1.369-1.187-2.187H9.943a3.567 3.567 0 01-1.19 2.144A2.832 2.832 0 007.836 8.8h5.643zM2.287 7.232A2.832 2.832 0 001.372 8.8h5.643a2.834 2.834 0 00-.868-1.524c-.667-.606-1.08-1.37-1.187-2.188H3.478a3.567 3.567 0 01-1.19 2.144zm1.104-2.244a3.465 3.465 0 01-1.17 2.169 2.932 2.932 0 00-.97 1.742h5.885a2.934 2.934 0 00-.922-1.698c-.674-.612-1.08-1.388-1.165-2.213H3.392zm13.06-1.73v1.19h1.41v-1.19h-1.41zm-.378-1.718v1.078h2.101V1.54h-2.101zM1.21 9.339a.17.17 0 010 .013l-.001.013v6.705h5.967V9.339H1.21zm5.866.1H1.31v6.531h5.767V9.44zm.599-.1v.011l-.001.012v6.708h5.967V9.35l-.001-.011H7.676zm5.866.1H7.775v6.531h5.767V9.44zm.599-.1v.011l-.002.012v6.708h5.968V9.352l-.001-.013H14.14zm5.866.1H14.24v6.531h5.767V9.44zM9.987 3.258v1.19h1.41v-1.19h-1.41zm-.38-1.718v1.078h2.102V1.54H9.608zM3.522 3.258v1.19h1.41v-1.19h-1.41zM3.143 1.54v1.078h2.101V1.54H3.143zM1.568 18.045h5.251a.267.267 0 00.258-.275v-1.16H1.31v1.16c0 .155.12.274.258.274zm5.51-.258zm.1-.015V16.51H1.21v1.26c0 .207.16.375.358.375h5.251a.367.367 0 00.358-.373zm.855.273h5.251a.267.267 0 00.258-.275v-1.16H7.775v1.166a.267.267 0 00.258.268zm-.358-.273V16.51h5.967v1.262a.367.367 0 01-.358.373H8.033a.367.367 0 01-.358-.373zm6.823.273h5.251a.267.267 0 00.258-.275v-1.16H14.24v1.166a.267.267 0 00.258.268zm-.358-.273V16.51h5.967v1.26c0 .207-.16.375-.358.375h-5.251a.367.367 0 01-.358-.373zm2.21-13.223h1.61V3.158h-1.61v1.39zm-.36-3.11a.018.018 0 00-.018.018V2.7c0 .01.008.017.019.017h2.263c.01 0 .02-.007.02-.017V1.457c0-.01-.01-.017-.02-.017h-2.263zM9.887 4.55h1.61V3.158h-1.61v1.39zm-.36-3.11a.018.018 0 00-.018.018V2.7c0 .01.008.017.019.017h2.263c.01 0 .02-.007.02-.017V1.457c0-.01-.01-.017-.02-.017H9.527zM3.422 4.55h1.61V3.158h-1.61v1.39zm-.36-3.11a.018.018 0 00-.018.018V2.7c0 .01.008.017.019.017h2.263c.01 0 .02-.007.02-.017V1.457c0-.01-.01-.017-.02-.017H3.062z" fill="#2C2C2C"/><path d="M9.615 2.211l.883.082 1.204.312-.416.895h-1.159l-.512-.86v-.429zm6.464-.011l.882.081 1.204.313-.416.894H16.59l-.511-.86V2.2zm.307 3.13c.08-.333.094-.947.08-1.244.482-.138 1.37-.367 1.37-.144 0 .301.026 1.048.075 1.438-.549.1-1.594.238-1.525-.05zm-6.463 0c.08-.333.094-.947.08-1.244.481-.138 1.37-.367 1.37-.144 0 .301.025 1.048.074 1.438-.548.1-1.593.238-1.524-.05zm-6.465-.022c.08-.333.094-.946.08-1.243.482-.139 1.37-.368 1.37-.145 0 .302.025 1.049.074 1.438-.548.1-1.593.238-1.524-.05zM1.319 17.08v-2.014h5.749v2.014h-5.75zm6.465 0v-2.014h5.749v2.014h-5.75zm6.466 0v-2.014h5.748v2.014H14.25zM3.159 2.211l.882.082 1.204.312-.416.895H3.671l-.512-.86v-.429z" fill="#fff"/></svg>