<svg width="21" height="19" fill="none" xmlns="http://www.w3.org/2000/svg"><path fill-rule="evenodd" clip-rule="evenodd" d="M10.69.97a.325.325 0 00-.407 0L.915 8.918a.185.185 0 00-.065.094.131.131 0 00.008.085L10.691.97zM.398 8.308L9.766.36a1.125 1.125 0 011.442 0l9.369 7.948c.33.28.438.71.277 1.096-.16.387-.553.637-.998.637h-1.497v7.486c0 .316-.275.572-.614.572H12.61c-.339 0-.614-.256-.614-.572V12.34H8.978v5.187c0 .316-.275.572-.614.572H3.229c-.34 0-.614-.256-.614-.572v-7.486H1.118c-.445 0-.837-.25-.998-.637a.944.944 0 01.277-1.096zm19.719.79a.132.132 0 00.008-.086.185.185 0 00-.065-.094L10.691.97l9.425 8.127zm0 0c-.027.064-.111.143-.26.143H17.56V17.3h-4.763v-5.76H8.178v5.76H3.415V9.24H1.118c-.149 0-.233-.08-.26-.144" fill="#2C2C2C"/><path d="M10.35 1.022a.3.3 0 01.39 0l8.913 7.609a.3.3 0 01-.194.528H1.63a.3.3 0 01-.195-.528l8.914-7.61z" fill="#fff"/><path d="M.861 9.09l1.05-.906-.385.975L.86 9.09zm19.251.003l-1.05-.906.385.975.665-.069z" fill="#fff"/></svg>