<svg width="293" height="60" fill="none" xmlns="http://www.w3.org/2000/svg"><path d="M83.44 22.24c-.4 0-.693.093-.88.28-.16.16-.267.373-.32.64h-.48v-5.92h.48c.053.267.16.493.32.68.187.16.48.24.88.24h8.28c-.533-1.333-1.493-2.32-2.88-2.96-1.36-.667-3.093-1-5.2-1-1.92 0-3.373.213-4.36.64-.987.4-1.48.8-1.48 1.2v.36l.08.24-.4.28-3.24-5.68.44-.12c.16.213.36.32.6.32.213 0 .533-.067.96-.2.427-.16 1.027-.347 1.8-.56.8-.213 1.773-.427 2.92-.64 1.173-.213 2.56-.32 4.16-.32s3.16.227 4.68.68c1.547.453 2.92 1.133 4.12 2.04 1.2.88 2.16 2 2.88 3.36.747 1.333 1.12 2.893 1.12 4.68 0 1.813-.373 3.387-1.12 4.72a9.885 9.885 0 01-2.88 3.32c-1.2.88-2.573 1.533-4.12 1.96-1.52.427-3.08.64-4.68.64-1.493 0-2.84-.12-4.04-.36-1.173-.24-2.2-.493-3.08-.76a31.59 31.59 0 01-2.12-.8c-.533-.24-.893-.36-1.08-.36a.794.794 0 00-.36.08c-.08.027-.147.107-.2.24l-.48-.28 3.52-5.36.44.28c-.053.107-.107.2-.16.28a.569.569 0 00-.08.32c0 .293.213.573.64.84.427.267.987.507 1.68.72a16.93 16.93 0 002.28.52c.853.107 1.707.16 2.56.16.88 0 1.707-.08 2.48-.24.8-.187 1.52-.453 2.16-.8a5.414 5.414 0 001.6-1.4 5.458 5.458 0 001-1.96h-8.44zm29.602-4.48c-1.76 3.893-3.08 6.88-3.96 8.96-.853 2.08-1.28 3.227-1.28 3.44 0 .187.067.293.2.32.134.027.24.04.32.04V31h-6.48v-.48c.16 0 .32-.027.48-.08a.621.621 0 00.32-.32c.8-1.867 1.6-3.707 2.4-5.52a499.47 499.47 0 002.2-4.96c.667-1.493 1.2-2.72 1.6-3.68.427-.987.64-1.547.64-1.68 0-.24-.173-.373-.52-.4v-.48h8.56v.48c-.346.027-.52.16-.52.4 0 .08.134.44.4 1.08.294.613.654 1.4 1.08 2.36.454.933.947 1.973 1.48 3.12l1.6 3.44a83.36 83.36 0 011.52 3.28 68.17 68.17 0 011.16 2.56c.054.133.16.24.32.32.16.053.32.08.48.08V31h-7.16v-.48c.08 0 .187-.013.32-.04.134-.027.2-.133.2-.32 0-.213-.44-1.36-1.32-3.44-.853-2.08-2.2-5.067-4.04-8.96zm26.08-.36c-.747 0-1.453.12-2.12.36a5.124 5.124 0 00-1.76.96c-.507.4-.907.893-1.2 1.48-.267.587-.4 1.253-.4 2 0 .747.133 1.413.4 2a4.73 4.73 0 001.2 1.52c.507.4 1.093.72 1.76.96.667.213 1.373.32 2.12.32.773 0 1.48-.107 2.12-.32a6.209 6.209 0 001.76-.96 4.287 4.287 0 001.16-1.52c.293-.587.44-1.253.44-2 0-.747-.147-1.413-.44-2a3.933 3.933 0 00-1.16-1.48 5.124 5.124 0 00-1.76-.96 5.997 5.997 0 00-2.12-.36zm0-4.24c1.253 0 2.507.173 3.76.52 1.28.347 2.427.893 3.44 1.64a8.225 8.225 0 012.52 2.8c.64 1.147.96 2.507.96 4.08 0 1.6-.32 2.973-.96 4.12a8.345 8.345 0 01-2.52 2.76c-1.013.72-2.16 1.24-3.44 1.56-1.253.32-2.507.48-3.76.48-1.253 0-2.52-.16-3.8-.48a10.6 10.6 0 01-3.44-1.56 8.525 8.525 0 01-2.48-2.76c-.64-1.147-.96-2.52-.96-4.12 0-1.573.32-2.933.96-4.08.64-1.147 1.467-2.08 2.48-2.8a10.778 10.778 0 013.44-1.64 14.49 14.49 0 013.8-.52zm31.373 7l-.56-.28.08-.32a.798.798 0 00.08-.36c0-.16-.173-.347-.52-.56-.32-.213-.747-.4-1.28-.56a11.828 11.828 0 00-1.76-.48 9.584 9.584 0 00-1.96-.2c-.747 0-1.507.093-2.28.28a6.616 6.616 0 00-2.08.88 4.74 4.74 0 00-1.52 1.48c-.4.587-.6 1.307-.6 2.16 0 .827.2 1.547.6 2.16.4.613.907 1.12 1.52 1.52a7.24 7.24 0 002.08.84c.773.187 1.533.28 2.28.28.8 0 1.547-.093 2.24-.28a11.5 11.5 0 001.88-.72c.56-.293.987-.573 1.28-.84.32-.293.48-.507.48-.64v-.36c0-.16-.013-.28-.04-.36l.44-.28 3.8 5.48-.48.28c-.24-.293-.453-.44-.64-.44-.107 0-.4.12-.88.36-.453.24-1.067.52-1.84.84-.773.293-1.693.547-2.76.76-1.04.213-2.2.32-3.48.32a21.2 21.2 0 01-4.32-.44c-1.387-.293-2.627-.787-3.72-1.48a8.304 8.304 0 01-2.64-2.8c-.667-1.147-1-2.547-1-4.2 0-1.627.333-3.013 1-4.16a8.304 8.304 0 012.64-2.8c1.093-.72 2.333-1.24 3.72-1.56a18.063 18.063 0 014.32-.52c.88 0 1.733.08 2.56.24.827.133 1.587.28 2.28.44.693.16 1.293.32 1.8.48.507.133.867.2 1.08.2.133 0 .253-.04.36-.12.107-.08.187-.16.24-.24l.48.16-2.88 5.84z" fill="#2C2C2C"/><path d="M75.291 51.382V55h-1.218v-9.242h3.408c1.012 0 1.803.258 2.375.774.575.517.863 1.2.863 2.05 0 .898-.282 1.59-.844 2.076-.56.483-1.361.724-2.406.724h-2.177zm0-.997h2.19c.652 0 1.151-.152 1.499-.457.346-.309.52-.753.52-1.333 0-.55-.174-.99-.52-1.32-.348-.33-.824-.502-1.429-.514h-2.26v3.624zm9.56 4.742c-.93 0-1.688-.305-2.272-.914-.584-.614-.876-1.433-.876-2.457v-.215c0-.682.129-1.289.387-1.822a3.05 3.05 0 011.092-1.257c.47-.305.977-.457 1.523-.457.893 0 1.587.294 2.082.882.495.588.743 1.43.743 2.527v.488h-4.653c.017.677.214 1.225.59 1.644.381.415.864.623 1.448.623.414 0 .765-.085 1.053-.254.288-.17.54-.394.756-.673l.717.558c-.576.885-1.439 1.327-2.59 1.327zm-.146-6.157a1.56 1.56 0 00-1.193.52c-.322.343-.52.825-.597 1.447h3.44v-.088c-.033-.597-.194-1.058-.482-1.384-.288-.33-.677-.495-1.168-.495zm8.43 6.03c-.068-.135-.123-.377-.165-.724-.546.567-1.198.851-1.955.851-.677 0-1.234-.19-1.67-.571a1.872 1.872 0 01-.647-1.46c0-.715.27-1.27.812-1.663.546-.398 1.312-.597 2.298-.597h1.143v-.54c0-.41-.123-.736-.368-.977-.246-.246-.608-.368-1.086-.368-.419 0-.77.105-1.054.317-.283.212-.425.468-.425.768h-1.18c0-.343.12-.673.361-.99.246-.322.576-.576.99-.762.42-.186.879-.28 1.378-.28.791 0 1.411.2 1.86.598.448.393.681.937.698 1.63v3.162c0 .63.08 1.132.241 1.504V55h-1.231zm-1.949-.895c.368 0 .717-.095 1.047-.286.33-.19.57-.438.718-.742v-1.41h-.92c-1.44 0-2.159.422-2.159 1.264 0 .368.123.656.368.863.246.207.56.311.946.311zm7.795-5.58c.863 0 1.553.29 2.069.87.521.575.781 1.335.781 2.279v.108c0 .647-.125 1.227-.374 1.739-.25.508-.61.904-1.08 1.187-.465.28-1.002.419-1.612.419-.922 0-1.665-.307-2.228-.92-.563-.618-.844-1.446-.844-2.482v-.572c0-1.443.267-2.59.8-3.44.537-.85 1.329-1.37 2.374-1.555.592-.106.992-.235 1.199-.388a.735.735 0 00.311-.628h.965c0 .53-.12.942-.362 1.238-.237.296-.617.506-1.142.628l-.876.197c-.698.165-1.223.444-1.574.838-.347.39-.574.91-.68 1.562.623-.72 1.38-1.08 2.273-1.08zm-.229.965c-.575 0-1.032.195-1.37.584-.34.385-.508.92-.508 1.606v.102c0 .736.169 1.32.507 1.752.343.427.804.64 1.384.64.584 0 1.045-.215 1.384-.647.338-.431.508-1.062.508-1.891 0-.648-.172-1.166-.514-1.555-.339-.394-.802-.59-1.39-.59zm8.728-1.358h1.175V55h-1.175v-5.008L104.313 55h-1.174v-6.868h1.174v5.015l3.167-5.015zm8.69 0V55h-1.18v-5.897h-2.336l-.14 2.57c-.076 1.181-.275 2.026-.597 2.533-.317.508-.823.773-1.517.794h-.469v-1.035l.336-.025c.381-.042.654-.262.819-.66.165-.398.271-1.134.317-2.21l.127-2.938h4.64zm6.329 0h1.174V55h-1.174v-5.008L119.332 55h-1.175v-6.868h1.175v5.015l3.167-5.015zm8.163.952h-2.304V55h-1.174v-5.916h-2.26v-.952h5.738v.952zM135.943 55c-.067-.135-.122-.377-.165-.724-.546.567-1.197.851-1.955.851-.677 0-1.233-.19-1.669-.571a1.872 1.872 0 01-.648-1.46c0-.715.271-1.27.813-1.663.546-.398 1.312-.597 2.298-.597h1.142v-.54c0-.41-.122-.736-.368-.977-.245-.246-.607-.368-1.085-.368-.419 0-.771.105-1.054.317-.284.212-.425.468-.425.768h-1.181c0-.343.121-.673.362-.99.245-.322.575-.576.99-.762.419-.186.878-.28 1.377-.28.792 0 1.412.2 1.86.598.449.393.682.937.699 1.63v3.162c0 .63.08 1.132.241 1.504V55h-1.232zm-1.948-.895c.368 0 .717-.095 1.047-.286.33-.19.569-.438.717-.742v-1.41h-.92c-1.439 0-2.158.422-2.158 1.264 0 .368.122.656.368.863.245.207.561.311.946.311zm4.881-5.973h1.181v5.91h3.161v-5.91h1.174v5.91h.819l-.114 2.996h-1.054V55h-5.167v-6.868zm12.048 0h1.174V55h-1.174v-5.008L147.756 55h-1.174v-6.868h1.174v5.015l3.168-5.015zm2.748 3.37c0-.672.132-1.278.394-1.815a2.995 2.995 0 011.104-1.244 3.024 3.024 0 011.619-.438c.935 0 1.691.324 2.266.971.58.648.87 1.509.87 2.584v.082c0 .669-.129 1.27-.387 1.803a2.89 2.89 0 01-1.099 1.238c-.474.296-1.019.444-1.637.444-.931 0-1.687-.324-2.266-.971-.576-.648-.864-1.505-.864-2.571v-.083zm1.181.14c0 .762.176 1.373.527 1.835.355.46.829.692 1.422.692.596 0 1.07-.233 1.422-.699.351-.47.526-1.125.526-1.968 0-.753-.179-1.362-.539-1.828a1.694 1.694 0 00-1.422-.704c-.58 0-1.047.23-1.403.692-.355.46-.533 1.121-.533 1.98zM167.009 55h-1.175v-2.933h-3.154V55h-1.181v-6.868h1.181v2.977h3.154v-2.977h1.175V55zm7.503 0h-1.175v-2.933h-3.154V55h-1.181v-6.868h1.181v2.977h3.154v-2.977h1.175V55zm3.174-4.5h1.783c.779.008 1.395.211 1.847.609.453.398.68.937.68 1.618 0 .686-.233 1.236-.699 1.65-.465.416-1.091.623-1.879.623h-2.907v-6.868h1.175v2.367zm6.76 4.5h-1.181v-6.868h1.181V55zm-6.76-3.542v2.584h1.745c.44 0 .781-.113 1.022-.337.241-.228.362-.54.362-.933 0-.38-.119-.692-.356-.933-.232-.246-.56-.372-.983-.381h-1.79zm13.253-3.326h1.175V55h-1.175v-5.008L187.772 55h-1.174v-6.868h1.174v5.015l3.167-5.015zm.318-2.501c0 .512-.176.925-.527 1.238-.347.309-.804.463-1.371.463s-1.026-.157-1.378-.47c-.351-.313-.526-.723-.526-1.231h.958c0 .296.08.529.241.698.161.165.396.248.705.248.296 0 .527-.083.692-.248.169-.165.254-.398.254-.698h.952zm6.068 2.5h1.181v5.91h3.161v-5.91h1.174v5.91h.819l-.114 2.997h-1.054V55h-5.167v-6.868zm10.455 6.996c-.931 0-1.689-.305-2.273-.914-.584-.614-.876-1.433-.876-2.457v-.215c0-.682.129-1.289.388-1.822a3.048 3.048 0 011.091-1.257c.47-.305.978-.457 1.524-.457.893 0 1.587.294 2.082.882.495.588.742 1.43.742 2.527v.488h-4.652c.017.677.213 1.225.59 1.644.381.415.863.623 1.447.623.415 0 .766-.085 1.054-.254.288-.17.54-.394.755-.673l.718.558c-.576.885-1.439 1.327-2.59 1.327zm-.146-6.157c-.474 0-.872.173-1.194.52-.321.343-.52.825-.596 1.447h3.44v-.088c-.034-.597-.194-1.058-.482-1.384-.288-.33-.677-.495-1.168-.495zm9.801 6.03h-1.175v-2.933h-3.155V55h-1.18v-6.868h1.18v2.977h3.155v-2.977h1.175V55zm6.995-5.916h-2.305V55h-1.174v-5.916h-2.26v-.952h5.739v.952zm6.944 2.558c0 1.045-.239 1.887-.717 2.526-.478.64-1.126.959-1.943.959-.833 0-1.489-.265-1.967-.794v3.308h-1.175v-9.51h1.073l.057.763c.478-.593 1.143-.89 1.993-.89.826 0 1.477.312 1.955.934.483.622.724 1.487.724 2.596v.108zm-1.174-.133c0-.775-.165-1.386-.495-1.835-.33-.448-.783-.672-1.359-.672-.711 0-1.244.315-1.599.945v3.282c.351.626.888.94 1.612.94.563 0 1.009-.223 1.339-.667.335-.449.502-1.113.502-1.993zM236.205 55v-6.868h2.678c.914 0 1.615.16 2.101.482.491.318.737.785.737 1.403 0 .317-.096.605-.286.863-.19.254-.472.449-.844.584.415.098.747.288.996.572.254.283.381.622.381 1.015 0 .63-.232 1.113-.698 1.447-.461.335-1.115.502-1.961.502h-3.104zm1.174-3.015v2.07h1.942c.491 0 .857-.092 1.098-.274.246-.182.369-.438.369-.768 0-.685-.504-1.028-1.511-1.028h-1.898zm0-.94h1.517c1.1 0 1.65-.321 1.65-.964 0-.644-.52-.976-1.561-.997h-1.606v1.961zm11.127-5.287l3.022 7.54 3.021-7.54h1.581V55h-1.219v-3.6l.114-3.884L251.991 55h-.933l-3.028-7.465.121 3.866V55h-1.219v-9.242h1.574zm9.281 5.744c0-.672.131-1.278.393-1.815a2.99 2.99 0 011.105-1.244 3.02 3.02 0 011.618-.438c.936 0 1.691.324 2.266.971.58.648.87 1.509.87 2.584v.082c0 .669-.129 1.27-.387 1.803-.254.529-.62.941-1.098 1.238-.474.296-1.02.444-1.638.444-.931 0-1.686-.324-2.266-.971-.576-.648-.863-1.505-.863-2.571v-.083zm1.18.14c0 .762.176 1.373.527 1.835.356.46.83.692 1.422.692.597 0 1.071-.233 1.422-.699.351-.47.527-1.125.527-1.968 0-.753-.18-1.362-.54-1.828a1.693 1.693 0 00-1.422-.704c-.579 0-1.047.23-1.403.692-.355.46-.533 1.121-.533 1.98zm9.3 2.526a1.69 1.69 0 001.098-.38 1.34 1.34 0 00.52-.953h1.111a2.125 2.125 0 01-.406 1.124 2.67 2.67 0 01-1.003.85 2.866 2.866 0 01-1.32.318c-.936 0-1.68-.311-2.235-.933-.55-.627-.825-1.481-.825-2.565v-.196c0-.669.123-1.264.368-1.784.246-.52.597-.925 1.054-1.212.461-.288 1.005-.432 1.631-.432.77 0 1.409.23 1.917.692.512.461.785 1.06.819 1.796h-1.111a1.602 1.602 0 00-.508-1.092c-.3-.287-.672-.431-1.117-.431-.596 0-1.06.215-1.39.647-.326.428-.489 1.048-.489 1.86v.222c0 .792.163 1.4.489 1.828.326.428.791.642 1.397.642zm6.189-2.094h-.857V55h-1.181v-6.868h1.181v2.907h.768l2.31-2.907h1.422l-2.717 3.3L278.328 55h-1.492l-2.38-2.926zM279.445 55v-6.868h2.679c.914 0 1.614.16 2.101.482.49.318.736.785.736 1.403 0 .317-.095.605-.286.863-.19.254-.472.449-.844.584.415.098.747.288.997.572.254.283.38.622.38 1.015 0 .63-.232 1.113-.698 1.447-.461.335-1.115.502-1.961.502h-3.104zm1.174-3.015v2.07h1.943c.49 0 .856-.092 1.098-.274.245-.182.368-.438.368-.768 0-.685-.504-1.028-1.511-1.028h-1.898zm0-.94h1.517c1.1 0 1.651-.321 1.651-.964 0-.644-.521-.976-1.562-.997h-1.606v1.961zm8.995 4.082c-.931 0-1.689-.305-2.273-.914-.584-.614-.876-1.433-.876-2.457v-.215c0-.682.129-1.289.388-1.822a3.048 3.048 0 011.091-1.257c.47-.305.978-.457 1.524-.457.893 0 1.587.294 2.082.882.495.588.742 1.43.742 2.527v.488h-4.652c.017.677.213 1.225.59 1.644.381.415.863.623 1.447.623.415 0 .766-.085 1.054-.254.288-.17.54-.394.755-.673l.718.558c-.576.885-1.439 1.327-2.59 1.327zm-.146-6.157c-.474 0-.872.173-1.194.52-.321.343-.52.825-.596 1.447h3.44v-.088c-.034-.597-.194-1.058-.482-1.384-.288-.33-.677-.495-1.168-.495z" fill="#777"/><g clip-path="url(#clip0)"><path d="M29 57.281l-1.255-2.762a43.657 43.657 0 00-8.874-12.804l-5.277-5.278h30.812l-3.987 3.68A43.67 43.67 0 0029 57.282z" fill="#508DE9"/><path d="M13.594 36.438l5.277 5.277a43.766 43.766 0 013.391 3.828A15.702 15.702 0 0029 40.864a15.719 15.719 0 006.536 4.597 43.568 43.568 0 014.884-5.347l3.986-3.675H13.594z" fill="#508DE9"/><path d="M44.184 23.29c3.754-6.501 3.634-13.598-.267-15.85-3.9-2.252-10.106 1.192-13.86 7.694-3.754 6.502-3.634 13.598.267 15.85 3.9 2.253 10.106-1.192 13.86-7.694z" fill="#CD313A"/><path d="M28.581 30.983c3.901-2.252 4.02-9.348.267-15.85-3.754-6.502-9.96-9.946-13.86-7.694-3.902 2.252-4.021 9.349-.267 15.85 3.754 6.502 9.96 9.947 13.86 7.694z" fill="#CD313A"/><path d="M41.688 44.594c7.507 0 13.593-3.652 13.593-8.157 0-4.504-6.086-8.156-13.593-8.156-7.508 0-13.594 3.652-13.594 8.157 0 4.504 6.086 8.156 13.593 8.156z" fill="#2E68BF"/><path d="M41.688 28.281a15.603 15.603 0 00-13.594 8.157 16.402 16.402 0 002.065 2.9 18.228 18.228 0 0014.162-1.673 17.903 17.903 0 006.439-6.368 15.204 15.204 0 00-9.072-3.016z" fill="#508DE9"/><path d="M16.313 44.594c7.507 0 13.593-3.652 13.593-8.157 0-4.504-6.086-8.156-13.593-8.156-7.508 0-13.594 3.652-13.594 8.157 0 4.504 6.086 8.156 13.594 8.156z" fill="#2E68BF"/><path d="M27.84 39.337a16.407 16.407 0 002.066-2.9 15.601 15.601 0 00-13.593-8.156 15.204 15.204 0 00-9.073 3.012 17.901 17.901 0 006.439 6.367 18.228 18.228 0 0014.162 1.678z" fill="#508DE9"/><path d="M44.32 34.94c7.802-4.504 11.895-12.021 9.142-16.79-2.752-4.767-11.309-4.98-19.11-.476-7.803 4.505-11.896 12.022-9.143 16.79 2.753 4.767 11.31 4.98 19.111.476z" fill="#F4557B"/><path d="M34.356 17.678a17.842 17.842 0 013.951-1.676 17.903 17.903 0 012.976 14.273 17.812 17.812 0 003.948-1.676 18.15 18.15 0 008.238-10.384 18.669 18.669 0 01-9.144 16.726 18.68 18.68 0 01-19.111-.476 18.678 18.678 0 019.142-16.787z" fill="#CD313A"/><path d="M32.79 34.465c2.752-4.768-1.34-12.285-9.143-16.79-7.801-4.504-16.358-4.29-19.11.477-2.753 4.768 1.34 12.285 9.142 16.79 7.802 4.504 16.358 4.29 19.11-.477z" fill="#F4557B"/><path d="M23.648 17.678a17.841 17.841 0 00-3.952-1.676 17.906 17.906 0 00-2.976 14.273 17.81 17.81 0 01-3.947-1.676 18.154 18.154 0 01-8.236-10.384 18.669 18.669 0 009.142 16.726 18.682 18.682 0 0019.112-.476 18.68 18.68 0 00-9.143-16.787z" fill="#CD313A"/><path d="M29 37.344c5.506 0 9.969-7.304 9.969-16.313 0-9.009-4.463-16.312-9.969-16.312-5.506 0-9.969 7.303-9.969 16.312 0 9.01 4.463 16.313 9.969 16.313z" fill="#FF7C84"/><path d="M34.438 32.813a18.678 18.678 0 01-9.97-16.313 18.089 18.089 0 014.25-11.615 18.646 18.646 0 00-9.687 16.146A18.679 18.679 0 0029 37.344a19.823 19.823 0 005.72-4.697c-.096.053-.186.113-.282.166z" fill="#F4557B"/><path d="M29 25.563a.906.906 0 00-.906.906V36.81c.298.181.598.362.906.534.308-.17.608-.35.906-.534V26.469a.906.906 0 00-.906-.907z" fill="#F4557B"/><path d="M29.906 29.407a19.19 19.19 0 01-1.812-2.094v9.497c.298.181.598.362.906.534.312-.172.605-.367.906-.553v-7.384z" fill="#CD313A"/></g><defs><clipPath id="clip0"><path fill="#fff" transform="translate(0 2)" d="M0 0h58v58H0z"/></clipPath></defs></svg>