<svg width="62" height="62" fill="none" xmlns="http://www.w3.org/2000/svg"><rect width="61.477" height="61.077" rx="30.538" fill="#F4557B"/><path d="M41.194 28.557a1.124 1.124 0 00-.972-.762l-6.134-.547-2.424-5.574a1.13 1.13 0 00-1.04-.674c-.453 0-.86.264-1.038.674l-2.424 5.574-6.135.547c-.45.04-.83.34-.971.762-.14.423-.011.886.33 1.179l4.636 3.993-1.367 5.914a1.1 1.1 0 00.439 1.146 1.138 1.138 0 001.241.054l5.29-3.107 5.288 3.107a1.15 1.15 0 001.243-.054 1.1 1.1 0 00.439-1.146l-1.367-5.914 4.636-3.993a1.1 1.1 0 00.33-1.18z" fill="#fff"/></svg>