<svg width="62" height="62" fill="none" xmlns="http://www.w3.org/2000/svg"><rect width="61.477" height="61.077" rx="30.538" fill="#508DE9"/><path d="M41.11 36.146l-3.031-3.07c-1.083-1.097-2.923-.658-3.357.767-.324.987-1.407 1.535-2.382 1.316-2.165-.548-5.089-3.4-5.63-5.702-.325-.987.325-2.083 1.3-2.412 1.407-.439 1.84-2.303.757-3.4l-3.032-3.07c-.866-.767-2.165-.767-2.923 0l-2.057 2.084c-2.058 2.193.216 8.004 5.305 13.158 5.09 5.153 10.828 7.566 12.994 5.373l2.057-2.084c.758-.877.758-2.193 0-2.96z" fill="#fff"/></svg>