<svg width="114" height="18" fill="none" xmlns="http://www.w3.org/2000/svg"><path d="M8.572 1.682a.5.5 0 01.856 0l1.888 3.135a1.5 1.5 0 00.946.688l3.566.826a.5.5 0 01.265.815l-2.4 2.764a1.5 1.5 0 00-.361 1.113l.316 3.646a.5.5 0 01-.693.504l-3.37-1.428a1.5 1.5 0 00-1.17 0l-3.37 1.428a.5.5 0 01-.693-.504l.316-3.646a1.5 1.5 0 00-.361-1.113l-2.4-2.764a.5.5 0 01.265-.815l3.566-.826a1.5 1.5 0 00.946-.688l1.888-3.135-.429-.258.429.258zm24 0a.5.5 0 01.856 0l1.888 3.135a1.5 1.5 0 00.946.688l3.566.826a.5.5 0 01.265.815l-2.4 2.764a1.5 1.5 0 00-.361 1.113l.316 3.646a.5.5 0 01-.693.504l-3.37-1.428a1.5 1.5 0 00-1.17 0l-3.37 1.428a.5.5 0 01-.693-.504l.316-3.646a1.5 1.5 0 00-.361-1.113l-2.4-2.764a.5.5 0 01.265-.815l3.566-.826a1.5 1.5 0 00.946-.688l1.888-3.135-.429-.258.429.258zm24 0a.5.5 0 01.856 0l1.888 3.135a1.5 1.5 0 00.946.688l3.566.826a.5.5 0 01.265.815l-2.4 2.764a1.5 1.5 0 00-.361 1.113l.316 3.646a.5.5 0 01-.693.504l-3.37-1.428a1.5 1.5 0 00-1.17 0l-3.37 1.428a.5.5 0 01-.693-.504l.316-3.646a1.5 1.5 0 00-.361-1.113l-2.4-2.764a.5.5 0 01.265-.815l3.566-.826a1.5 1.5 0 00.946-.688l1.888-3.135-.429-.258.429.258zm24 0a.5.5 0 01.856 0l1.888 3.135a1.5 1.5 0 00.946.688l3.566.826a.5.5 0 01.265.815l-2.4 2.764a1.5 1.5 0 00-.361 1.113l.316 3.646a.5.5 0 01-.693.504l-3.37-1.428a1.5 1.5 0 00-1.17 0l-3.37 1.428a.5.5 0 01-.693-.504l.316-3.646a1.5 1.5 0 00-.362-1.113l-2.399-2.764a.5.5 0 01.265-.815l3.566-.826a1.5 1.5 0 00.946-.688l1.888-3.135-.429-.258.429.258z" fill="#2C2C2C" stroke="#2C2C2C"/><path d="M104.143 1.424a1 1 0 011.714 0l1.887 3.136a1 1 0 00.631.458l3.566.826a1 1 0 01.529 1.63l-2.399 2.764a1.004 1.004 0 00-.241.742l.316 3.646a1 1 0 01-1.386 1.007l-3.37-1.428a.999.999 0 00-.78 0l-3.37 1.428a1 1 0 01-1.386-1.007l.316-3.646a1.004 1.004 0 00-.241-.742l-2.4-2.764a1 1 0 01.53-1.63l3.566-.826a1 1 0 00.631-.458l1.887-3.136z" fill="#DDD"/></svg>