<svg width="40" height="40" fill="none" xmlns="http://www.w3.org/2000/svg"><circle cx="20" cy="20" r="20" fill="#2C2C2C"/><path d="M31.284 13.542c-.632-1.123-1.317-1.33-2.712-1.408C27.18 12.039 23.675 12 20.64 12c-3.041 0-6.547.04-7.939.132-1.392.08-2.078.286-2.715 1.41C9.335 14.663 9 16.595 9 19.996v.011c0 3.386.335 5.333.985 6.442.637 1.123 1.322 1.327 2.714 1.421 1.393.082 4.899.13 7.94.13 3.036 0 6.54-.048 7.935-.128 1.395-.095 2.08-.298 2.711-1.421.656-1.11.988-3.056.988-6.442v-.013c0-3.402-.332-5.334-.99-6.455zM17.727 24.364v-8.728L25 20l-7.273 4.364z" fill="#F9F9F9"/></svg>